<svg xmlns="http://www.w3.org/2000/svg" viewBox="0 0 1200 820" role="img" aria-labelledby="title desc">
  <title id="title">Industrial automation visual</title>
  <desc id="desc">Abstract dark dashboard with robotic arm, network nodes and industrial control panels.</desc>
  <defs>
    <linearGradient id="bg" x1="0" y1="0" x2="1" y2="1">
      <stop offset="0" stop-color="#11182f"/>
      <stop offset="0.55" stop-color="#0a1022"/>
      <stop offset="1" stop-color="#061513"/>
    </linearGradient>
    <linearGradient id="accent" x1="0" y1="0" x2="1" y2="1">
      <stop offset="0" stop-color="#57e6c4"/>
      <stop offset="1" stop-color="#8a7cff"/>
    </linearGradient>
    <filter id="glow" x="-30%" y="-30%" width="160%" height="160%">
      <feGaussianBlur stdDeviation="8" result="blur"/>
      <feMerge>
        <feMergeNode in="blur"/>
        <feMergeNode in="SourceGraphic"/>
      </feMerge>
    </filter>
  </defs>
  <rect width="1200" height="820" rx="42" fill="url(#bg)"/>
  <g opacity="0.18" stroke="#fff" stroke-width="1">
    <path d="M0 120H1200M0 240H1200M0 360H1200M0 480H1200M0 600H1200M0 720H1200"/>
    <path d="M120 0V820M240 0V820M360 0V820M480 0V820M600 0V820M720 0V820M840 0V820M960 0V820M1080 0V820"/>
  </g>
  <circle cx="920" cy="165" r="122" fill="#8a7cff" opacity="0.18" filter="url(#glow)"/>
  <circle cx="260" cy="620" r="140" fill="#57e6c4" opacity="0.14" filter="url(#glow)"/>
  <g fill="none" stroke="#57e6c4" stroke-width="8" stroke-linecap="round" stroke-linejoin="round">
    <path d="M395 585h230"/>
    <path d="M510 585V455"/>
    <path d="M510 455l112-92"/>
    <path d="M622 363l118 72"/>
    <path d="M740 435h92"/>
    <circle cx="510" cy="455" r="38" fill="#0d1224"/>
    <circle cx="622" cy="363" r="34" fill="#0d1224"/>
    <circle cx="740" cy="435" r="32" fill="#0d1224"/>
    <path d="M830 405v62l72 22 50-44-34-64z" fill="#0d1224"/>
  </g>
  <g opacity="0.95">
    <rect x="108" y="112" width="288" height="168" rx="24" fill="rgba(255,255,255,0.08)" stroke="rgba(255,255,255,0.24)"/>
    <rect x="140" y="152" width="88" height="22" rx="11" fill="url(#accent)"/>
    <rect x="140" y="196" width="204" height="12" rx="6" fill="#ffffff" opacity="0.32"/>
    <rect x="140" y="226" width="150" height="12" rx="6" fill="#ffffff" opacity="0.22"/>
  </g>
  <g opacity="0.92">
    <rect x="790" y="566" width="292" height="142" rx="24" fill="rgba(255,255,255,0.08)" stroke="rgba(255,255,255,0.24)"/>
    <circle cx="842" cy="626" r="22" fill="#57e6c4"/>
    <circle cx="900" cy="626" r="22" fill="#ffb86b"/>
    <circle cx="958" cy="626" r="22" fill="#8a7cff"/>
    <rect x="836" y="664" width="192" height="12" rx="6" fill="#ffffff" opacity="0.25"/>
  </g>
  <g stroke="url(#accent)" stroke-width="4" opacity="0.75" fill="none">
    <path d="M396 196 C520 172 594 204 700 282"/>
    <path d="M742 470 C820 500 870 530 936 566"/>
    <path d="M344 236 C438 328 456 410 510 455"/>
  </g>
  <g fill="#57e6c4" opacity="0.9">
    <circle cx="396" cy="196" r="8"/><circle cx="700" cy="282" r="8"/><circle cx="936" cy="566" r="8"/><circle cx="344" cy="236" r="8"/>
  </g>
</svg>
